Coordinates
version=1
nRows=24
nColumns=22
inDegrees=yes

Units are S.I. units (second, meters, Newtons, ...)
If the header above contains a line with 'inDegrees', this indicates whether rotational values are in degrees (yes) or radians (no).

endheader
time	pelvis_tilt	pelvis_list	pelvis_rotation	pelvis_tx	pelvis_ty	pelvis_tz	hip_flexion_r	hip_adduction_r	hip_rotation_r	knee_angle_r	ankle_angle_r	subtalar_angle_r	hip_flexion_l	hip_adduction_l	hip_rotation_l	knee_angle_l	ankle_angle_l	subtalar_angle_l	lumbar_extension	lumbar_bending	lumbar_rotation
      1.43000000	    -14.44929541	     -0.82080328	     -6.11869070	     -1.05146552	      0.97155332	     -0.21623213	     22.72377393	      0.83480621	     -0.14902104	    -23.06945140	     18.48864207	     -7.16299263	     21.11409893	      0.73553675	     -7.39139080	    -18.62822639	     20.52846364	     -1.70211022	      4.83215849	      2.10992308	      5.33156625
      1.44000000	    -14.33105189	     -0.60872361	     -6.11032166	     -1.05074813	      0.97122357	     -0.21696673	     23.13431744	      0.55388721	     -0.12109960	    -24.08812659	     18.69472312	     -6.93909696	     20.99646775	      1.01508071	     -7.44186375	    -18.68590430	     20.61053187	     -1.75381414	      4.63143846	      1.83379837	      5.33092044
      1.45000000	    -14.18595231	     -0.38116377	     -6.08957608	     -1.05000295	      0.97089265	     -0.21770646	     23.55405198	      0.25496264	     -0.07560136	    -25.17784684	     18.92441363	     -6.85722824	     20.84776934	      1.31799879	     -7.47057044	    -18.73813118	     20.70170180	     -1.77073026	      4.39735256	      1.53401765	      5.29670178
      1.46000000	    -14.04835597	     -0.13363931	     -6.08832175	     -1.04923132	      0.97052822	     -0.21841745	     24.03398487	     -0.05623511	     -0.00613855	    -26.35674119	     19.10795818	     -6.70371267	     20.69603458	      1.63270407	     -7.53691533	    -18.77020397	     20.78216494	     -1.79686498	      4.17490245	      1.21785620	      5.27584852
      1.47000000	    -13.89568502	      0.11817587	     -6.08951897	     -1.04840584	      0.97017387	     -0.21910792	     24.53344696	     -0.37105790	      0.06783610	    -27.60301629	     19.26808984	     -6.53466922	     20.51901963	      1.95145687	     -7.61262632	    -18.78966546	     20.87763398	     -1.81894399	      3.93705980	      0.89716619	      5.23866886
      1.48000000	    -13.74337360	      0.37224071	     -6.10982065	     -1.04752767	      0.96982216	     -0.21977538	     25.07180939	     -0.68239765	      0.15334936	    -28.91733605	     19.37282517	     -6.21579023	     20.33255261	      2.26559439	     -7.72949184	    -18.79599970	     20.96651720	     -1.85185215	      3.70265330	      0.58603901	      5.20966738
      1.49000000	    -13.54205269	      0.62618745	     -6.11991771	     -1.04654821	      0.96954826	     -0.22041381	     25.57573865	     -0.99837610	      0.22739351	    -30.27263855	     19.48710069	     -6.08518339	     20.07493328	      2.59229974	     -7.80582571	    -18.77600549	     21.08136368	     -1.85140350	      3.41586368	      0.26584014	      5.14375994
      1.50000000	    -13.32935566	      0.88510711	     -6.15504938	     -1.04547767	      0.96931287	     -0.22101105	     26.09703084	     -1.31255080	      0.31030278	    -31.67510621	     19.54116726	     -5.90615566	     19.78670987	      2.91850066	     -7.92554853	    -18.72997228	     21.18532584	     -1.84981941	      3.12491986	     -0.04861183	      5.09585034
      1.51000000	    -13.09918783	      1.13414182	     -6.21961890	     -1.04429708	      0.96913807	     -0.22154388	     26.62032873	     -1.60906351	      0.39398462	    -33.11142468	     19.54395005	     -5.59137522	     19.46096307	      3.22627509	     -8.09425428	    -18.66222339	     21.28392650	     -1.84990638	      2.82221782	     -0.34428331	      5.05829078
      1.52000000	    -12.85591671	      1.38157681	     -6.26961522	     -1.04300166	      0.96900628	     -0.22206901	     27.13852011	     -1.91203856	      0.43999333	    -34.56191010	     19.52452044	     -5.52459190	     19.09627984	      3.54814485	     -8.19977907	    -18.55757912	     21.39291118	     -1.83449514	      2.51551121	     -0.63739632	      4.98719842
      1.53000000	    -12.60023975	      1.61946981	     -6.34286423	     -1.04159155	      0.96893548	     -0.22253310	     27.65253348	     -2.19885772	      0.48042225	    -36.01288009	     19.45364493	     -5.44330769	     18.69725598	      3.85479738	     -8.34154652	    -18.42793800	     21.47395878	     -1.82884664	      2.20446583	     -0.91261037	      4.93130206
      1.54000000	    -12.34412640	      1.83449382	     -6.40880149	     -1.04007099	      0.96890588	     -0.22297490	     28.16008850	     -2.46729825	      0.48418714	    -37.43816491	     19.35581544	     -5.41647610	     18.27897727	      4.14409942	     -8.45496347	    -18.28007921	     21.54967443	     -1.83371789	      1.90081381	     -1.15652034	      4.85435412
      1.55000000	    -12.08930133	      2.02367320	     -6.46778215	     -1.03844458	      0.96891726	     -0.22338686	     28.65713528	     -2.71229003	      0.45381721	    -38.81734400	     19.24603541	     -5.44242430	     17.84684236	      4.41008474	     -8.54898179	    -18.12167051	     21.61024481	     -1.85501205	      1.60480777	     -1.36749540	      4.76337493
      1.56000000	    -11.84633149	      2.17921990	     -6.51162195	     -1.03672383	      0.96895282	     -0.22377305	     29.14686134	     -2.92606084	      0.38346976	    -40.12689540	     19.13708038	     -5.51947654	     17.41713976	      4.64440485	     -8.61030665	    -17.96343686	     21.66858273	     -1.88546707	      1.32593364	     -1.53729971	      4.64983641
      1.57000000	    -11.62312250	      2.29613981	     -6.53326339	     -1.03492204	      0.96900167	     -0.22414456	     29.63032898	     -3.10172883	      0.27434531	    -41.34222582	     19.04240024	     -5.63197389	     17.00289212	      4.84103405	     -8.64150908	    -17.81386044	     21.72818085	     -1.91873457	      1.06995466	     -1.65956617	      4.51456231
      1.58000000	    -11.42768582	      2.36357852	     -6.53136468	     -1.03305700	      0.96905028	     -0.22449306	     30.11083222	     -3.22901206	      0.11419084	    -42.44398434	     18.95622099	     -5.75438501	     16.62232802	      4.98413750	     -8.64181858	    -17.69314364	     21.80733156	     -1.94677388	      0.84112104	     -1.72213507	      4.35425272
      1.59000000	    -11.26188043	      2.39100595	     -6.50226359	     -1.03113622	      0.96909578	     -0.22482116	     30.58923256	     -3.31571846	     -0.08969457	    -43.41628096	     18.87865902	     -5.87941745	     16.27444238	      5.08486105	     -8.61068675	    -17.59079719	     21.89477636	     -1.97027057	      0.64125354	     -1.73724082	      4.17007315
      1.60000000	    -11.12397054	      2.37384260	     -6.46174833	     -1.02917083	      0.96913597	     -0.22508085	     31.06345989	     -3.34553088	     -0.31804808	    -44.24659904	     18.78102400	     -5.94917982	     15.96506374	      5.12943721	     -8.57050800	    -17.52370536	     22.02056704	     -1.97789591	      0.46528588	     -1.70354417	      3.97380413
      1.61000000	    -11.01146397	      2.34331938	     -6.40625752	     -1.02713440	      0.96916687	     -0.22532168	     31.53917509	     -3.36828921	     -0.59539967	    -44.93648936	     18.67394778	     -6.00442611	     15.67745150	      5.15954007	     -8.50452170	    -17.45724746	     22.13262338	     -1.98312669	      0.31687787	     -1.65257404	      3.78077785
      1.62000000	    -10.92723747	      2.29982554	     -6.34519916	     -1.02504012	      0.96918219	     -0.22551130	     32.01997108	     -3.37398079	     -0.90005382	    -45.47940762	     18.53761559	     -6.03385598	     15.41861782	      5.17009932	     -8.42697297	    -17.39853565	     22.24535370	     -1.98840891	      0.19783769	     -1.58629055	      3.58895083
      1.63000000	    -10.87260476	      2.24978448	     -6.28407320	     -1.02291535	      0.96916642	     -0.22563943	     32.51194583	     -3.36460047	     -1.21745212	    -45.87605447	     18.36752239	     -6.03005240	     15.19502876	      5.16541031	     -8.34576311	    -17.35207045	     22.35916282	     -1.99382671	      0.10421384	     -1.51457325	      3.40199412
      1.64000000	    -10.88033269	      2.18483239	     -6.20386882	     -1.02074507	      0.96906696	     -0.22575938	     33.04213586	     -3.34659430	     -1.58127745	    -46.12203999	     18.18744726	     -5.97939804	     15.04591135	      5.14009670	     -8.22833342	    -17.33074352	     22.45774091	     -2.00622264	      0.07991005	     -1.41667006	      3.19685938
      1.65000000	    -10.88197042	      2.13517719	     -6.15836148	     -1.01853488	      0.96897010	     -0.22577588	     33.56043533	     -3.31783108	     -1.90378263	    -46.23668856	     17.95646763	     -5.88435090	     14.89288769	      5.11647041	     -8.16960733	    -17.31644954	     22.58632773	     -2.01190817	      0.03749389	     -1.33892212	      3.03738796
      1.66000000	    -10.86536518	      2.09855846	     -6.14223139	     -1.01624139	      0.96888959	     -0.22569680	     34.04898512	     -3.28498639	     -2.20170254	    -46.22440810	     17.70042150	     -5.79186532	     14.71598414	      5.09821573	     -8.13966484	    -17.30285446	     22.72864961	     -2.01246951	     -0.02903708	     -1.28380205	      2.90801067
